<?xml version="1.0" standalone="no"?>
<!DOCTYPE svg PUBLIC "-//W3C//DTD SVG 20010904//EN"
 "http://www.w3.org/TR/2001/REC-SVG-20010904/DTD/svg10.dtd">
<svg version="1.0" xmlns="http://www.w3.org/2000/svg"
 width="1182.000000pt" height="1182.000000pt" viewBox="0 0 1182.000000 1182.000000"
 preserveAspectRatio="xMidYMid meet">
<metadata>
Created by potrace 1.14, written by Peter Selinger 2001-2017
</metadata>
<g transform="translate(0.000000,1182.000000) scale(0.100000,-0.100000)"
fill="#000000" stroke="none">
<path d="M5785 10432 c-519 -627 -776 -976 -823 -1116 -13 -39 -18 -77 -16
-124 3 -74 12 -183 18 -222 3 -14 7 -47 10 -75 10 -82 16 -128 22 -165 2 -19
7 -55 10 -80 3 -25 7 -56 9 -70 4 -25 11 -79 20 -155 3 -22 7 -58 10 -80 7
-61 20 -184 30 -300 25 -293 28 -898 4 -1095 -4 -36 -10 -96 -13 -135 -3 -38
-8 -79 -10 -90 -2 -11 -7 -45 -10 -76 -4 -31 -9 -67 -11 -80 -3 -13 -7 -41
-11 -64 -15 -101 -83 -415 -90 -415 -6 0 -81 41 -234 127 -69 38 -156 87 -195
108 -38 21 -74 41 -80 45 -5 4 -37 22 -70 40 -70 38 -119 65 -235 130 -47 26
-107 60 -135 75 -27 16 -104 58 -170 95 -66 37 -147 82 -180 100 -33 18 -63
35 -66 39 -4 3 -9 92 -12 196 -4 105 -8 199 -10 210 -3 11 -8 45 -11 75 -8 69
-12 92 -37 210 -11 52 -22 105 -25 118 -11 55 -97 299 -143 403 -241 554 -694
1106 -1321 1610 -58 46 -107 86 -110 89 -24 26 -220 178 -220 171 0 -6 27
-120 60 -253 55 -219 105 -441 114 -508 53 -355 60 -442 60 -735 0 -213 -9
-462 -18 -512 -2 -10 -7 -56 -10 -103 -4 -47 -9 -96 -11 -110 -2 -14 -7 -54
-10 -90 -3 -36 -8 -76 -10 -90 -3 -14 -7 -56 -10 -95 -4 -38 -8 -83 -10 -98
-4 -35 -17 -160 -20 -207 -2 -19 -6 -62 -9 -95 -41 -390 -42 -1116 -1 -1405 3
-19 7 -51 9 -70 14 -109 18 -136 21 -150 2 -8 7 -31 10 -50 41 -241 155 -574
283 -820 74 -141 244 -417 271 -440 4 -3 14 -16 22 -30 24 -38 183 -234 263
-325 86 -99 432 -444 541 -541 44 -39 195 -172 335 -294 351 -306 392 -343
411 -362 28 -27 13 -166 -31 -299 -47 -140 -70 -176 -741 -1189 -86 -129 -155
-236 -154 -238 4 -4 1976 1969 2016 2017 19 22 51 71 71 108 l38 68 -5 -120
c-5 -125 -12 -235 -20 -295 -3 -19 -7 -55 -10 -80 -13 -103 -48 -284 -80 -410
-42 -167 -76 -271 -188 -573 -13 -37 -21 -67 -17 -67 8 0 44 15 140 57 19 8
44 19 55 23 269 111 368 188 594 465 86 106 191 267 243 373 l40 84 24 -42
c13 -23 24 -44 24 -46 0 -5 72 -123 118 -194 53 -81 198 -277 251 -338 58 -68
172 -161 253 -206 63 -35 382 -176 397 -176 5 0 -4 35 -20 78 -16 42 -29 78
-29 80 0 2 26 -30 58 -70 69 -86 161 -173 240 -227 61 -41 470 -244 483 -239
4 2 -41 100 -100 218 -60 118 -123 253 -141 300 -17 47 -36 94 -41 105 -43
102 -106 505 -78 505 4 0 17 -12 29 -28 60 -76 1320 -1352 1336 -1352 2 0 -6
17 -19 37 -22 35 -204 331 -369 603 -39 63 -81 131 -93 150 -61 96 -166 273
-189 318 -78 154 -126 349 -128 522 0 3 0 33 1 67 l1 62 213 187 c116 103 241
212 277 243 341 297 553 504 792 776 19 22 74 90 122 150 47 61 90 115 94 120
5 6 53 78 108 160 111 168 239 411 308 587 43 110 118 350 129 414 5 26 11 56
32 154 2 13 7 42 10 65 3 22 8 51 10 65 2 14 7 50 10 80 4 30 8 66 10 80 4 24
14 168 20 290 10 168 4 574 -10 780 -3 47 -8 119 -10 160 -6 91 -15 204 -30
355 -3 33 -8 83 -10 110 -5 56 -13 132 -20 185 -2 19 -7 67 -11 105 -3 39 -8
84 -10 100 -2 17 -6 64 -9 105 -4 41 -8 89 -10 105 -22 198 -22 670 0 855 2
19 7 58 10 85 11 97 14 120 20 161 7 50 14 91 20 124 3 14 7 36 10 50 4 22 11
53 29 145 3 11 17 69 31 129 15 60 28 116 30 125 2 9 11 42 19 73 9 32 18 71
21 87 3 17 9 41 15 55 5 15 7 26 5 26 -2 0 0 12 6 26 8 22 7 25 -3 17 -31 -23
-173 -138 -178 -143 -3 -3 -25 -21 -50 -40 -25 -19 -47 -37 -50 -40 -3 -3 -27
-23 -55 -45 -210 -168 -520 -461 -686 -650 -24 -27 -50 -56 -58 -65 -8 -8 -50
-60 -94 -115 -43 -55 -85 -108 -92 -117 -20 -25 -160 -231 -168 -248 -4 -8
-13 -24 -20 -35 -215 -352 -363 -766 -402 -1120 -3 -33 -9 -78 -12 -100 -2
-22 -6 -114 -8 -203 -2 -90 -5 -165 -7 -167 -2 -1 -28 -16 -58 -32 -48 -26
-361 -200 -460 -256 -60 -34 -107 -60 -400 -223 -157 -87 -303 -168 -325 -181
-22 -12 -47 -26 -55 -29 -8 -4 -27 -16 -42 -26 -15 -10 -29 -14 -32 -9 -6 8
-44 165 -52 211 -2 14 -9 45 -14 70 -8 40 -18 96 -34 195 -3 17 -8 50 -11 75
-3 25 -8 54 -9 65 -2 11 -7 54 -11 95 -4 41 -8 86 -10 99 -27 168 -27 829 0
1131 2 25 7 79 10 120 3 41 8 89 10 105 2 17 7 57 10 90 4 33 8 71 10 85 2 14
6 48 9 75 4 28 8 61 11 75 2 14 7 48 10 75 3 28 7 64 10 80 2 17 7 46 9 65 3
19 7 58 11 85 3 28 8 64 10 80 14 108 19 170 18 241 0 100 -24 158 -134 321
-125 187 -499 668 -703 903 -17 20 -46 54 -64 77 -47 59 -69 83 -73 83 -2 0
-62 -71 -134 -158z"/>
</g>
</svg>
